<?xml version="1.0" encoding="utf-8"?>
<!-- Generator: Adobe Illustrator 16.0.0, SVG Export Plug-In . SVG Version: 6.00 Build 0)  -->
<!DOCTYPE svg PUBLIC "-//W3C//DTD SVG 1.1//EN" "http://www.w3.org/Graphics/SVG/1.1/DTD/svg11.dtd">
<svg version="1.1" id="Capa_1" xmlns="http://www.w3.org/2000/svg" xmlns:xlink="http://www.w3.org/1999/xlink" x="0px" y="0px"
	 width="960px" height="432px" viewBox="0 0 960 432" enable-background="new 0 0 960 432" xml:space="preserve">
<g>
	<text transform="matrix(1.0123 0 0 1 30.9971 260.6807)"><tspan x="0" y="0" fill="#F48221" font-family="'CenturyGothic-Bold'" font-size="99.7863">CREATIVE</tspan><tspan x="452.985" y="0" font-family="'CenturyGothic-Bold'" font-size="99.7863"> SOURCE</tspan></text>
	<polygon fill="#F48221" points="507.157,282.784 518.188,282.784 518.188,324.226 918.968,324.226 918.968,120.49 360.08,120.49 
		359,191.217 345.148,192.45 344.91,106.676 930,106.676 930,334.582 507.157,334.582 	"/>
	<text transform="matrix(1.14 0 0 1 56.8652 325.124)" font-family="'CenturyGothic'" font-size="51.741">Desarrollo Web</text>
	<polygon fill="#F48221" points="763,347 763,359 555,359 555,347 602,347 602,343 726,343 726,347 	"/>
</g>
</svg>
