<?xml version="1.0" encoding="utf-8"?>
<!-- Generator: Adobe Illustrator 16.0.0, SVG Export Plug-In . SVG Version: 6.00 Build 0)  -->
<!DOCTYPE svg PUBLIC "-//W3C//DTD SVG 1.1//EN" "http://www.w3.org/Graphics/SVG/1.1/DTD/svg11.dtd">
<svg version="1.1" id="Capa_1" xmlns="http://www.w3.org/2000/svg" xmlns:xlink="http://www.w3.org/1999/xlink" x="0px" y="0px"
	 width="1200px" height="804.082px" viewBox="0 0 1200 804.082" enable-background="new 0 0 1200 804.082" xml:space="preserve">
<g>
	<path fill="#F48221" d="M991.538,474.708c0,27.438,1.981,41.985-24.171,41.985h-674.69c-26.156,0-34.677-11.311-34.677-38.75
		V87.895c0-27.44,20.69-33.201,46.846-33.201h655.122c26.151,0,33.212,15.951,33.212,43.39L991.538,474.708z"/>
	<path d="M625,54.694v462H280.85c-26.165,0-33.85-11.296-33.85-38.764V87.895c0-27.428,19.841-33.201,46.005-33.201H625z"/>
	<polygon fill="#F48422" points="625,516.694 625,594.694 850,594.694 850,579.237 643.525,564.737 644.739,516.694 	"/>
	<polygon fill="#000200" points="625,516.694 625,594.694 399,594.694 399,579.237 607.459,564.737 608.234,516.694 	"/>
	<path fill="#F48221" d="M625,417.667v12.027H472.809c-25.572,0-34.019-13.788-34.019-39.914l-1.104-55.476
		c-31.731-3.75-56.647-38.294-56.647-80.286c0-41.438,27.961-75.669,54.961-80.089v54.765h14v-54.408
		c31,5.249,52.33,35.715,54.501,73.443c0.117,2.053,0.413,4.143,0.413,6.236c0,0.554,0.109,1.104,0.07,1.658
		c-0.594,41.043-24.415,74.551-55.397,78.497l0.898,47.554c0,26.127,6.214,36.23,30.208,36.23L625,417.667z"/>
	<path d="M887.627,314.15l-53.948-30.903l-19.22,56.555l-1.974,49.898c0,26.126-9.632,39.993-35.203,39.993H625v-12.027
		l141.831-0.238c23.995,0,34.253-9.708,34.253-35.834l1.438-40.136l-19.447-6.906l18.614-55.883l2.399-7.261l-5.924-0.79
		l-59.872-7.774L858.66,156.959L887.627,314.15z"/>
</g>
<g>
	<path fill="#F48221" d="M172.921,676.341l-25.482,1.598c-0.357-14.654-6.074-21.983-17.151-21.983
		c-12.706,0-19.057,11.284-19.057,33.85c0,13.034,1.727,21.869,5.182,26.51c3.455,4.64,8.283,6.96,14.482,6.96
		c10.06,0,16.208-6.542,18.445-19.625l23.581,1.445c-1.521,12.425-6.15,21.869-13.882,28.334
		c-7.734,6.466-17.204,9.699-28.411,9.699c-13.743,0-24.912-4.741-33.507-14.225c-8.596-9.482-12.893-22.592-12.893-39.326
		c0-15.67,4.157-28.499,12.475-38.49c8.316-9.989,19.675-14.985,34.078-14.985C155.729,636.102,169.776,649.516,172.921,676.341z"/>
	<path fill="#F48221" d="M207.835,741.531h-21.983v-76.827h20.766v14.3c3.195-10.648,8.721-15.974,16.583-15.974
		c1.115,0,2.484,0.076,4.107,0.229v22.363c-4.615,0-8.203,0.711-10.763,2.13c-2.562,1.42-4.653,3.969-6.276,7.645
		c-1.624,3.678-2.434,8.634-2.434,14.871V741.531z"/>
	<path fill="#F48221" d="M308.928,706.92h-49.443c-0.051,1.369-0.076,2.562-0.076,3.575c0,5.477,1.458,9.61,4.374,12.398
		c2.916,2.79,6.401,4.184,10.459,4.184c7.556,0,12.095-4.031,13.616-12.094l20.538,1.521c-5.731,17.75-17.37,26.624-34.915,26.624
		c-7.658,0-14.162-1.534-19.511-4.603c-5.351-3.067-9.763-7.542-13.236-13.426c-3.474-5.882-5.21-12.931-5.21-21.146
		c0-12.221,3.486-22.084,10.459-29.59c6.972-7.505,15.936-11.258,26.89-11.258c9.889,0,18.37,3.487,25.444,10.459
		C305.391,680.539,308.928,691.657,308.928,706.92z M259.408,693.761h27.308c-0.71-10.548-5.046-15.822-13.007-15.822
		C265.189,677.939,260.422,683.213,259.408,693.761z"/>
	<path fill="#F48221" d="M390.244,741.531H368.26c-0.711-3.043-1.065-7.048-1.065-12.019c-3.849,5.477-7.684,9.116-11.506,10.916
		c-3.822,1.799-8.164,2.7-13.025,2.7c-7.191,0-13-1.952-17.43-5.857c-4.431-3.904-6.645-9.153-6.645-15.746
		c0-4.816,1.291-9.254,3.874-13.312c2.581-4.057,6.733-7.238,12.455-9.546s16.151-4.019,31.29-5.135v-4.412
		c0-7.454-3.717-11.182-11.147-11.182c-7.937,0-12.361,3.728-13.27,11.182l-20.918-1.978c1.369-8.722,5.502-14.909,12.399-18.561
		c6.896-3.651,14.706-5.477,23.429-5.477c5.222,0,10.142,0.608,14.757,1.825c4.614,1.218,8.215,3.043,10.801,5.478
		c2.586,2.434,4.336,5.008,5.249,7.721c0.913,2.713,1.369,7.442,1.369,14.187v34.838
		C388.875,733.848,389.331,738.64,390.244,741.531z M366.207,704.714c-15.822,1.572-23.733,6.364-23.733,14.377
		c0,2.688,0.833,5.008,2.502,6.96c1.668,1.953,4.044,2.929,7.127,2.929c3.994,0,7.342-1.66,10.047-4.982
		c2.704-3.321,4.057-7.417,4.057-12.285V704.714z"/>
	<path fill="#F48221" d="M433.145,682.351v32.48c0,4.058,0.605,6.77,1.817,8.139s4.065,2.054,8.559,2.054
		c2.07,0,4.469-0.101,7.195-0.304v16.811c-6.593,1.115-11.333,1.674-14.224,1.674c-9.433,0-16.126-1.813-20.082-5.439
		c-3.956-3.625-5.934-10.18-5.934-19.663v-35.751h-12.17v-17.647h13.464l1.826-22.668l19.549-1.521v24.189h16.506v17.647H433.145z"
		/>
	<path fill="#F48221" d="M485.022,635.57v22.668h-22.667V635.57H485.022z M485.022,664.704v76.827h-22.667v-76.827H485.022z"/>
	<path fill="#F48221" d="M564.132,664.704l-26.329,76.827h-17.631l-26.402-76.827h23.562l14.814,48.683l15.157-48.683H564.132z"/>
	<path fill="#F48221" d="M641.035,706.92h-49.443c-0.051,1.369-0.076,2.562-0.076,3.575c0,5.477,1.458,9.61,4.374,12.398
		c2.916,2.79,6.401,4.184,10.459,4.184c7.556,0,12.095-4.031,13.616-12.094l20.538,1.521c-5.731,17.75-17.37,26.624-34.914,26.624
		c-7.659,0-14.162-1.534-19.512-4.603c-5.351-3.067-9.763-7.542-13.236-13.426c-3.474-5.882-5.21-12.931-5.21-21.146
		c0-12.221,3.486-22.084,10.459-29.59c6.972-7.505,15.936-11.258,26.89-11.258c9.889,0,18.37,3.487,25.444,10.459
		C637.498,680.539,641.035,691.657,641.035,706.92z M591.516,693.761h27.309c-0.711-10.548-5.047-15.822-13.008-15.822
		C597.297,677.939,592.53,683.213,591.516,693.761z"/>
	<path fill="#F48221" d="M728.132,660.52l-20.69,6.922c-2.783-8.216-8.678-12.323-17.682-12.323c-9.613,0-14.419,3.119-14.419,9.356
		c0,2.485,0.899,4.59,2.697,6.313c1.797,1.725,5.86,3.223,12.19,4.493c10.583,2.136,18.331,4.294,23.245,6.474
		c4.912,2.18,9.052,5.69,12.42,10.533c3.368,4.842,5.053,10.253,5.053,16.236c0,9.38-3.611,17.492-10.83,24.337
		c-7.221,6.845-17.924,10.267-32.109,10.267c-10.641,0-19.697-2.421-27.171-7.265c-7.474-4.842-12.399-12.03-14.78-21.564
		l22.516-5.097c2.53,9.687,9.565,14.528,21.104,14.528c5.567,0,9.717-1.076,12.45-3.232c2.732-2.155,4.1-4.729,4.1-7.721
		c0-3.043-1.241-5.401-3.723-7.074c-2.481-1.674-7.267-3.246-14.355-4.719c-13.218-2.741-22.637-6.482-28.259-11.224
		s-8.432-11.675-8.432-20.802c0-9.228,3.355-17.012,10.068-23.351c6.713-6.337,15.819-9.507,27.32-9.507
		C709.209,636.102,722.306,644.242,728.132,660.52z"/>
	<path fill="#F48221" d="M777.613,663.106c11.702,0,20.832,3.829,27.394,11.486c6.561,7.657,9.841,17.242,9.841,28.753
		c0,11.36-3.407,20.83-10.221,28.411c-6.813,7.582-15.869,11.372-27.165,11.372c-10.942,0-19.694-3.753-26.255-11.258
		s-9.84-17.141-9.84-28.905c0-8.164,1.48-15.1,4.445-20.805c2.963-5.705,7.027-10.307,12.195-13.806
		C763.176,664.855,769.71,663.106,777.613,663.106z M778.222,677.939c-4.298,0-7.534,1.661-9.708,4.982
		c-2.175,3.322-3.262,9.927-3.262,19.815c0,9.078,1.036,15.594,3.109,19.549c2.073,3.956,5.31,5.934,9.708,5.934
		c3.843,0,6.952-1.686,9.329-5.059c2.376-3.372,3.564-9.8,3.564-19.283c0-10.091-1.05-16.937-3.147-20.538
		C785.717,679.74,782.52,677.939,778.222,677.939z"/>
	<path fill="#F48221" d="M894.794,664.704v76.827H873.8v-13.083c-3.956,9.787-11.513,14.681-22.668,14.681
		c-5.781,0-10.22-1.078-13.313-3.233c-3.094-2.154-5.313-5.096-6.655-8.823c-1.345-3.728-2.016-9.115-2.016-16.164v-50.204h21.983
		v50.204c0,6.896,2.839,10.345,8.52,10.345c2.891,0,5.4-0.823,7.53-2.472c2.13-1.647,3.486-3.41,4.069-5.287
		c0.583-1.876,0.875-5.097,0.875-9.66v-43.13H894.794z"/>
	<path fill="#F48221" d="M935.49,741.531h-21.983v-76.827h20.766v14.3c3.195-10.648,8.722-15.974,16.583-15.974
		c1.115,0,2.484,0.076,4.107,0.229v22.363c-4.615,0-8.203,0.711-10.764,2.13c-2.561,1.42-4.652,3.969-6.275,7.645
		c-1.623,3.678-2.434,8.634-2.434,14.871V741.531z"/>
	<path fill="#F48221" d="M1035.138,712.702c-0.862,9.078-4.45,16.418-10.764,22.021s-14.466,8.405-24.455,8.405
		c-10.853,0-19.689-3.587-26.509-10.764c-6.821-7.175-10.231-16.772-10.231-28.791s3.486-21.768,10.459-29.248
		c6.973-7.479,16.29-11.22,27.955-11.22c9.381,0,17.152,2.814,23.314,8.443c6.161,5.629,9.571,12.678,10.23,21.146l-21.146,1.217
		c-0.711-9.229-4.716-13.844-12.019-13.844c-8.976,0-13.464,7.354-13.464,22.06c0,9.787,1.255,16,3.766,18.636
		c2.51,2.638,5.564,3.956,9.166,3.956c6.998,0,11.182-4.438,12.551-13.312L1035.138,712.702z"/>
	<path fill="#F48221" d="M1116.301,706.92h-49.443c-0.051,1.369-0.076,2.562-0.076,3.575c0,5.477,1.457,9.61,4.374,12.398
		c2.915,2.79,6.401,4.184,10.459,4.184c7.556,0,12.095-4.031,13.616-12.094l20.538,1.521c-5.731,17.75-17.369,26.624-34.915,26.624
		c-7.657,0-14.161-1.534-19.511-4.603c-5.351-3.067-9.763-7.542-13.235-13.426c-3.475-5.882-5.211-12.931-5.211-21.146
		c0-12.221,3.486-22.084,10.459-29.59c6.973-7.505,15.937-11.258,26.89-11.258c9.889,0,18.37,3.487,25.444,10.459
		C1112.764,680.539,1116.301,691.657,1116.301,706.92z M1066.781,693.761h27.309c-0.711-10.548-5.047-15.822-13.008-15.822
		C1072.563,677.939,1067.795,683.213,1066.781,693.761z"/>
</g>
</svg>
